<?xml version="1.0" standalone="no"?><!DOCTYPE svg PUBLIC "-//W3C//DTD SVG 1.1//EN" "http://www.w3.org/Graphics/SVG/1.1/DTD/svg11.dtd"><svg t="1779760523241" class="icon" viewBox="0 0 1024 1024" version="1.1" xmlns="http://www.w3.org/2000/svg" p-id="8599" xmlns:xlink="http://www.w3.org/1999/xlink" width="200" height="200"><path d="M516 510.4m-508 0a508 508 0 1 0 1016 0 508 508 0 1 0-1016 0Z" fill="#BFBFBF" p-id="8600"></path><path d="M522.6 140.9c79.7-1.3 159.6 23.2 220.6 73.1 52.9 45 82.1 119.2 98 182.7V447c-7.9 42.4-15.9 84.7-18.5 127.1C904.6 568.8 928.5 643 857 688c-29.1 18.5-60 0.6-66.1 9.4-38.7 55.7-60.8 74.8-88.5 90.8-60.8 35-139.8 37.6-139.8 37.6-4.2 8.8-0.1 67.4-0.1 67.4 17.6 4 32.3 8.3 45 12.9-11.5 17.1-7.1 35.3-77.3 47h-13.5c-40.5-3.9-64.1-24.5-79.1-47 12.7-4.6 27.4-8.9 45-12.9 0 0 4-58.6-0.2-67.4 0 0-70.2-2.3-131-37.3-27.7-16-58.6-35.3-97.3-91-6.1-8.8-36.9 9.1-66.1-9.4-71.5-45-47.7-119.2 34.4-113.9-2.5-42.4-10.4-84.8-18.4-127.2v-50.3c15.9-63.5 45-137.7 98-182.7 52.6-43.1 119.3-67.2 187.8-72.2l32.8-0.9z" fill="#FFD7C7" p-id="8601"></path><path d="M423.3 388.6c9.5-3.5 25.7-9.8 23.3-16.1-2.2-6-12.7-2.4-17-1.7-8.9 1.5-18 2.3-24.7 9-3.4 3.4-8.5 10-2.7 12.9 5.2 2.6 10.3 0.2 15.2-2 1-0.4 3.2-1.2 5.9-2.1zM441.6 548.5c14.8-3 12.6-24.3 8.6-34.6-2.2-5.6-5.9-12.3-11.9-14.4-6.4-2.2-14.1 2.4-16 8.7-3.8 12.8-0.3 44.3 19.3 40.3z" p-id="8602"></path><path d="M509.5 629.7s0.7 0.2 2 0.6c0.7 0.2 1.4 0.5 2.4 0.6 0.9 0 2 0.1 3.2 0.1 4.8 0 11.5-2.2 18.6-6.4 6.9-4.1 14.9-10.6 19.2-18.7 2.1-4.2 1.9-7.5-0.9-9.7-3.7-3.3-8.8-6.7-13.1-10.6-4.1-4.5-8.8-8.7-11.9-13.8-1.7-2.4-3.4-4.8-4.9-7.3-1.2-2.6-2.4-5.3-3.6-7.8-2.8-5-3.2-10.6-4.7-15.5-1-5-0.7-10-1-14.4 0.2-4.4 1.2-8.5 1.7-12 0.3-3.6 2-6.4 2.7-8.8 1.8-4.8 2.9-7.4 2.9-7.4s-0.4 2.9-1.2 7.8c-0.2 2.5-1.4 5.3-1 8.8 0.1 3.4-0.1 7.3 0.2 11.4 0.9 4.1 1.2 8.5 2.5 13 1.8 4.4 2.6 9.3 5.4 13.6 1.2 2.2 2.4 4.5 3.6 6.8 1.5 2.1 3.1 4.3 4.7 6.4 2.8 4.6 7 7.9 10.5 11.9 4.1 3.9 8.6 6.9 13.2 11.1 1.4 1.3 2.7 2.6 3.5 4.6 1.1 1.8 1.3 3.8 1.3 5.8 0.1 3.9-1.3 7.2-2.8 9.8-3.2 5.4-7.3 9.3-11.5 12.4-4.1 3.2-8.5 5.5-12.6 7.3-8.3 3.6-16 4.3-21.2 3.4-2.7-0.5-4.5-1.3-5.6-2.1-1-0.5-1.6-0.9-1.6-0.9z" fill="#FB9A80" p-id="8603"></path><path d="M613.7 388.6c-9.5-3.5-25.7-9.8-23.4-16.1 2.2-6 12.7-2.4 17-1.7 8.9 1.5 18 2.3 24.7 9 3.4 3.4 8.5 10 2.7 12.9-5.3 2.6-10.4 0.2-15.3-2-0.9-0.4-3.1-1.2-5.7-2.1zM595.4 548.5c-14.8-3-12.6-24.3-8.6-34.6 2.1-5.6 5.9-12.3 11.9-14.4 6.4-2.2 14.1 2.4 16 8.7 3.7 12.8 0.2 44.3-19.3 40.3z" p-id="8604"></path><path d="M516 1018.5c65.1 0 127.4-12.3 184.7-34.6-1.2-2.2-2.4-4.2-3.7-6-22.5-31.5-40.3-54.2-89.4-71.9-19.4 32.9-67.5 44.9-84.9 44.9-32.8 0-74-24.5-84.9-44.9-49.1 17.7-67 40.4-89.5 71.9-2.1 3-4 6.5-5.8 10.2 54 19.6 112.5 30.4 173.5 30.4z" fill="#E24141" p-id="8605"></path><path d="M441.7 706.5c18.7 9.2 43.8 16.5 76.9 16.6 29.1 0.1 51.8-5.1 69.4-12.4-34.9-49.3-107.3-38.8-146.3-4.2z" fill="#FF9999" p-id="8606"></path><path d="M641.2 667.2c-120.3 18.5-245.5 0-245.5 0s12.7 22.8 46 39.3c44.3-29.4 103.4-31.3 146.3 4.2 39.9-16.4 53.2-43.5 53.2-43.5z" fill="#C04949" p-id="8607"></path><path d="M229.2 645.6c-3-22.6-22.3-50.8-41.8-39.1-5.5 3.3-6.3 12.3-6.6 17.9-1 17.4 6.8 39.5 25.2 44.6 19.5 5.5 25.3-7.5 23.2-23.4zM815.5 645.6c3-22.6 22.3-50.8 41.8-39.1 5.5 3.3 6.3 12.3 6.6 17.9 1 17.4-6.8 39.5-25.2 44.6-19.4 5.5-25.3-7.5-23.2-23.4z" fill="#FFBDAA" p-id="8608"></path><path d="M643.7 232.1c7 57-74.4 100.8-109.3 133.7 11.6-30.7 23.3-59.2 32.6-89.9-37.2 59.2-108.9 76.5-183.3 96.2 27.9-25.3 37.9-66.8 55.1-99.1-20.4 33.7-49.6 62.8-77.9 89.9-27.5 26.3-57.7 36.8-89 55.4 0.4-15.5 2.4-31.4-2.1-46 1 21.1-3.4 42-8.2 62.3-6.6 27.5-14.3 57.3-17.7 84.9-3.6 28.8-5.4 56.3-14.3 84.3-27-56-57.6-116.4-62.3-179.8-0.6-8-5-65.1 2.6-68.1-8.4 3.3-14.3 11-19.1 18.5 0.4-18.3-0.7-37.1 9-53-5.8 5.6-12.5 11.2-17.3 16.7-6.2-62.8 50.7-138.5 96.6-176.4 34.9-28.5 97.7-54.8 144.2-54.8-41.9-11-86.1 0-127.9 0 90.7-52.6 274.4-81.1 362.7-6.6 0-26.3-4.6-50.4 13.9-72.3-2.3 28.5 9.3 57 14 85.5 9.3-30.7 25.3-53.1 57.8-59.7 0 25.7-7.2 23.6-14.5 46.5-8.6 26.8 13.3 26.4 33.8 33.1 28.3 9.2 54.6 20.1 78.5 38.5 27.8 21.4 66.2 72 68.4 108.4-11.4-8.3-23.5-19.3-36.3-25.9 21.7 11.1 31.3 66.1 34.1 87.3 4.3 32.7 7.4 64.8 2.5 97.5-5 33.3-13 66.6-25 98.1-6.4 16.9-11.4 42.2-30.6 49.1-2.1 0.7-33.5-143.9-34.5-154.8-1.4-15.1-15-77.7-6.4-88.1-20.9 25.2-15.8 53.9-27.2 50-35.7-12.4-49.5-117.9-58.8-146.4-4.6 21.9-7 46-9.3 67.9-4.6-4.4-7-8.8-9.3-13.1l-25.5-69.8z" fill="#160D0A" p-id="8609"></path><path d="M523.6 935.7c-25.9 0-50.1-5-70.5-13.6l-0.3 92.5c20.7 2.6 41.8 3.9 63.3 3.9 25.2 0 49.9-1.8 74.1-5.4v-89.5c-19.7 7.7-42.4 12.1-66.6 12.1z" fill="#ECFAFF" p-id="8610"></path><path d="M522.4 955.8c-28.4 0-55.4-4.3-76-12.1l3.3-8.8c19.6 7.4 45.4 11.4 72.7 11.4 0.4 0 45.8-0.3 75.5-12.2l3.5 8.7c-31.4 12.7-77.1 13-79 13z" fill="#B3D8E3" p-id="8611"></path><path d="M484.4 846.5c-23.2-1.2-44.8 12.4-55.3 17.4-5.3 14.9-26.8 76.8-28.5 94-1.8 25.6 29.5-35.9 35.5-49.6 7.7 36.3 9.5 65.7 16.7 102 0-86.6 0.8-52 4-94.2 5.3-10.9 14.5-19.6 26-23l1.6-46.6zM560.7 846.4c23.2-1.2 47.1 12.5 57.5 17.5 5.3 14.9 26.8 76.8 28.6 94 1.8 25.6-27.1-35.9-33-49.6-7.7 36.3-16.6 65-23.7 101.3 0-86.6 0.8-52.6-2.4-94.9-5.3-10.9-13.8-18.1-25.2-21.6l-1.8-46.7z" fill="#C42A2A" p-id="8612"></path></svg>