<?xml version="1.0" standalone="no"?><!DOCTYPE svg PUBLIC "-//W3C//DTD SVG 1.1//EN" "http://www.w3.org/Graphics/SVG/1.1/DTD/svg11.dtd"><svg t="1779760589547" class="icon" viewBox="0 0 1024 1024" version="1.1" xmlns="http://www.w3.org/2000/svg" p-id="12103" xmlns:xlink="http://www.w3.org/1999/xlink" width="200" height="200"><path d="M511.431111 1.061925C228.977935 1.061925 0.000284 230.058539 0.000284 512.492752c0 139.529404 55.864858 266.050223 146.545697 358.304986 92.823652 94.530318 221.980321 153.106878 364.866167 153.106878a509.439717 509.439717 0 0 0 358.96869-147.209399 509.667272 509.667272 0 0 0 152.462137-364.202465c0-282.434213-228.996614-511.430827-511.430827-511.430827z" fill="#F9F9F9" p-id="12104"></path><path d="M718.165219 289.905617l20.574803 3.887405c-36.219239-52.717008-32.5025-103.234313-190.31219-156.14095C468.916172 111.028086 412.311759 75.756995 402.526876 56.888857c-3.811553 32.521463-2.616887 43.614791 9.405624 69.783665-29.695984 5.195849-55.770043-6.750811-83.323213-17.825175 5.385478 30.795835 20.574803 56.111376 41.054792 77.634327-26.168874 4.077035-60.984855 18.583693-102.134462 107.311348l20.574804-3.887405c-1.592888 4.456294-3.261628 8.817773-4.285628 13.74814-11.927697 21.997025-24.310505 51.76886-15.170362 80.383956 2.123851-3.887405 5.385478-7.679996 8.097181-10.998513C285.392718 482.531287 383.715627 568.888573 503.163264 568.888573c120.035489 0 217.789509-86.357285 226.455578-195.849373 3.261628 3.318517 5.954367 7.205922 8.097181 10.998513 9.026365-28.728873-17.976879-89.770617-19.550804-94.132096z" fill="#64534A" p-id="12105"></path><path d="M842.201891 820.413174c-17.882064-15.758213-57.381894-47.27464-177.379457-103.992831a2786.890304 2786.890304 0 0 0-65.289446-29.752873c-0.853333-0.379259-1.782518-0.739555-2.616887-1.099851l-4.001183-1.782517-35.783091-0.284445-93.809726-0.64474-32.426649-0.18963a169.43398 169.43398 0 0 0-5.859552 2.616888c-0.758518 0.379259-1.573925 0.64474-2.332443 1.023999-23.931246 10.619253-45.549012 20.517915-65.118779 29.752873-119.428674 56.604413-160.142133 88.689729-177.929382 104.447942-10.714068 9.500439-19.835248 27.610059-27.951392 50.915527C244.129334 965.612501 372.679189 1023.999431 514.939258 1023.999431A506.879718 506.879718 0 0 0 872.296096 877.302031c-8.666069-26.2068-18.450953-46.6299-30.094205-56.888857z" fill="#F39934" p-id="12106"></path><path d="M606.719947 532.877926a89.315506 89.315506 0 0 0-1.573925-14.506658c-5.726812-30.05628-26.623985-49.474343-51.863675-58.026635a99.839945 99.839945 0 0 0-63.981001 0.075852c-25.05006 8.666069-45.852419 27.989318-51.579231 57.855968a91.344542 91.344542 0 0 0-1.573925 14.601473V734.245518c22.09184 26.661911 50.839675 41.16857 79.966771 43.045902 3.79259 0.18963 7.679996 0.284444 11.472586 0 28.823688-1.498073 57.306042-15.739251 79.227215-43.045902V535.608591c-0.094815-0.948148-0.094815-1.782518-0.094815-2.730665z" fill="#FFDECC" p-id="12107"></path><path d="M606.719947 531.531557a86.319359 86.319359 0 0 0-1.573925-14.260141c-5.726812-29.54428-26.623985-48.602047-51.863675-57.040561a101.508684 101.508684 0 0 0-63.981001 0.094815c-25.05006 8.533329-45.852419 27.496281-51.579231 56.850932-0.929185 4.551109-1.384296 9.367698-1.573925 14.354955v133.328518c13.027548 9.538365 25.88443 17.426953 38.001757 23.343395 17.938953 8.79881 34.209166 13.42577 47.331529 13.42577 12.762067 0 28.482355-4.437331 45.852419-12.78103A254.369044 254.369044 0 0 0 606.814762 664.860075v-130.654742c-0.094815-0.910222-0.094815-1.744592-0.094815-2.654813z" fill="#F7C5AA" p-id="12108"></path><path d="M505.552596 777.348309L417.185238 691.446134l-2.559999-2.541035-6.447404-6.238812L341.333428 718.923452l1.934221 2.654814L438.309967 853.332859 512 783.473343zM615.72735 682.666287l-6.940441 6.750811-2.863406 2.749629-87.589877 85.238471-6.333626 6.125033L585.690033 853.332859l94.73891-131.318445 2.237629-3.166813z" fill="#FFFFFF" p-id="12109"></path><path d="M512.056889 189.629524c-183.276935 0-215.22951 129.915187-207.644329 238.193646 0 0.474074 0.113778 1.042962 0.113777 1.517036 0.872296 11.567401 2.142814 22.850358 3.697776 33.65924 2.730665 18.450953 6.333626 35.574499 10.126217 50.631083 7.509329 29.146058 15.796139 50.119083 20.081766 56.149303 11.586364 16.459843 46.079974 47.312566 83.30425 72.628107C454.485365 664.689409 489.168605 682.666287 512.056889 682.666287c22.622802 0 57.002635-17.673472 89.448246-39.689459 37.527683-25.410356 72.400552-56.642339 84.100694-73.196996 4.17185-6.030219 12.45866-26.7188 19.873175-55.694192 3.906368-15.056584 7.509329-32.274945 10.239994-50.896564 1.744592-11.567401 3.109924-23.703691 3.887405-36.124424v-0.094815C727.115732 318.881008 694.85975 189.629524 512.056889 189.629524z" fill="#FDE3D5" p-id="12110"></path><path d="M723.664475 418.00036a18.014805 18.014805 0 0 0-4.835553-0.815407 24.632875 24.632875 0 0 0-13.027548 3.84948 44.183679 44.183679 0 0 0-4.456294 3.090961c-6.978366 5.575108-13.406807 14.26014-17.957916 24.936282a70.921442 70.921442 0 0 0-2.522073 6.67496c-2.597924 7.77481-3.906368 15.341029-4.077034 22.376284-0.094815 2.465184 0 4.835553 0.189629 7.13007 0.929185 10.486513 4.645923 18.887101 10.770957 23.38132a16.213324 16.213324 0 0 0 4.854516 2.465184c15.170362 4.835553 34.322944-11.965623 42.875235-37.736275 8.571254-25.656875 3.166813-50.403528-11.813919-55.352859z m-399.283926 37.736276a99.024538 99.024538 0 0 0-2.427258-6.390515c-4.285627-9.95555-10.14518-18.185471-16.554658-23.855394-0.284444-0.18963-0.474074-0.455111-0.758518-0.625778-0.549926-0.568889-1.194666-1.005036-1.858369-1.460147-5.119997-3.849479-10.505476-6.030219-15.720288-6.125034-1.953184 0-3.811553 0.284444-5.669922 0.815407-15.075547 4.930368-20.385174 29.695984-11.81392 55.371821 8.552292 25.656875 27.723836 42.552865 42.894199 37.69835a16.11851 16.11851 0 0 0 5.499256-3.01511c5.935404-4.645923 9.481476-13.330956 10.221031-23.836431 0.094815-1.725629 0.18963-3.640887 0.094815-5.480293 0.075852-7.300737-1.213629-15.170362-3.906368-23.096876z" fill="#FFDECC" p-id="12111"></path><path d="M605.601133 353.583211c-12.515549-22.755543-17.028731-48.431381-5.176886-73.53833-29.183984 61.496855-178.896493 97.602316-172.3922 91.306616 19.873174-19.474952 48.014196-73.443515 44.525012-79.075511-7.433477-12.060438-121.931784 83.967953-164.10539 140.951625C280.500277 298.85613 371.731041 170.666572 508.624594 170.666572c142.184217 0 241.227718 135.604073 204.136183 265.481334-14.222214-50.687972-52.451526-81.445881-82.678472-116.242899-10.808883 8.571254-18.830212 20.498952-24.462209 33.678204z" fill="#64534A" p-id="12112"></path><path d="M676.484649 427.842133a33.374796 33.374796 0 0 0-10.60029-7.755848A28.19791 28.19791 0 0 0 653.273996 417.184953h-106.192534c-4.49422 0-9.007402 0.967111-13.065474 2.901332a28.178947 28.178947 0 0 0-10.600291 8.191996c-1.005036 1.498073-2.029036 2.465184-2.465183 3.868442h-36.750202c-1.023999-1.403258-2.029036-2.370369-3.034073-3.868442a28.159984 28.159984 0 0 0-10.60029-8.191996 30.473465 30.473465 0 0 0-13.084437-2.901332h-106.192534a28.444429 28.444429 0 0 0-12.5914 2.901332 32.085316 32.085316 0 0 0-10.600291 7.755848c-7.64207 8.893625-5.992293 20.593766-4.323553 31.516427l0.83437 6.068144 1.460147 9.159106c1.023999 4.645923 2.408295 9.064291 4.152887 13.198215 1.934221 4.570072 4.323553 8.722958 7.092144 12.496586 6.257774 8.628143 14.44977 15.492732 24.026061 20.4231a84.991953 84.991953 0 0 0 40.239385 10.126216 91.647949 91.647949 0 0 0 41.263384-8.09718c18.147545-8.722958 32.69213-23.589913 38.229313-44.714642l2.465183-12.515549h37.319091l3.034072 12.515549c5.063108 21.124729 19.607693 36.086498 37.755238 44.695679 8.002366 3.697776 16.76325 6.16296 25.789616 7.395551 5.157923 0.701629 10.391698 0.986074 15.549621 0.796444 14.089474 0 28.178947-3.33748 40.3342-10.126216l2.503109-1.327407c6.997329-3.944294 13.255104-8.874662 18.394064-14.866955 4.437331-5.006219 8.021329-10.808883 10.619253-17.332138 1.554962-3.963257 2.844443-8.097181 3.678813-12.591401l2.010073-9.159106 0.83437-6.257774c1.66874-11.074364 3.128887-22.603839-4.873479-31.402649z m-208.876921 46.648863c-4.039109 17.332139-16.11851 29.316724-30.757908 36.086498a61.819225 61.819225 0 0 1-17.673472 5.726812 91.742764 91.742764 0 0 1-17.028731 1.498073c-12.079401-0.455111-23.684728-2.920295-34.266055-8.191995-14.089474-7.736885-24.670801-20.252433-28.178948-37.584572-2.029036-10.562365-8.571254-26.927392-1.005036-36.086499a15.777176 15.777176 0 0 1 5.499256-4.30459 18.128583 18.128583 0 0 1 7.016292-1.517036h106.268386a11.94666 11.94666 0 0 1 7.016292 1.953184c2.010073 0.948148 4.039109 2.465184 5.499256 4.30459 2.047999 1.934221 3.034072 3.868442 3.508147 6.257775 0.474074 1.934221 0.474074 4.835553 0 7.205921l-3.034073 12.32592-2.844443 12.325919z m197.82152-2.465184c-3.508146 17.332139-14.639399 29.847687-28.728873 37.584572-10.60029 5.271701-22.186654 7.661033-34.266055 8.191995-5.613034 0-11.131253-0.455111-16.57362-1.422221a67.944259 67.944259 0 0 1-18.147546-5.802664c-14.544585-6.693922-26.149911-18.75436-30.663094-36.086498l-2.749628-12.325919-2.768591-12.231105a11.662216 11.662216 0 0 1-0.474074-7.205922 11.093327 11.093327 0 0 1 3.508146-6.257774 15.056584 15.056584 0 0 1 5.51822-4.323553 12.287993 12.287993 0 0 1 7.092144-1.934221h106.287348c2.465184 0 5.063108 0.530963 7.092144 1.498073a15.056584 15.056584 0 0 1 5.518219 4.30459c7.45244 9.064291 0.910222 25.448282-0.64474 36.010647z" fill="#5C402A" p-id="12113"></path></svg>