<?xml version="1.0" standalone="no"?><!DOCTYPE svg PUBLIC "-//W3C//DTD SVG 1.1//EN" "http://www.w3.org/Graphics/SVG/1.1/DTD/svg11.dtd"><svg t="1779760668923" class="icon" viewBox="0 0 1024 1024" version="1.1" xmlns="http://www.w3.org/2000/svg" p-id="14305" xmlns:xlink="http://www.w3.org/1999/xlink" width="200" height="200"><path d="M512 512m-512 0a512 512 0 1 0 1024 0 512 512 0 1 0-1024 0Z" fill="#EDEEF5" p-id="14306"></path><path d="M761.505684 509.817263c-8.434526-130.182737-3.368421-192.242526-66.586947-271.629474-105.094737-115.280842-264.084211-109.837474-279.578948-48.505263-99.705263-7.464421-133.497263 107.52-144.680421 168.879158s-15.467789 275.563789-15.467789 313.020632-29.426526 245.598316-29.426526 245.598316 534.339368-11.964632 577.751579 0c-19.563789-26.947368-36.378947-266.563368-42.010948-407.390316" fill="#28120A" p-id="14307"></path><path d="M419.84 181.005474s-6.332632 73.404632 35.759158 85.153684c-20.965053 9.296842-60.523789-3.179789-35.813053-85.153684" fill="#513026" p-id="14308"></path><path d="M423.720421 627.092211h173.109895v221.453473h-173.109895z" fill="#FCDCD4" p-id="14309"></path><path d="M161.576421 858.138947s201.135158-66.856421 230.453895-78.955789c66.021053 32.794947 74.455579 59.284211 74.455579 59.28421l19.563789 2.452211h62.841263l83.887158-61.790316 229.914948 77.204211s25.303579 4.661895 8.461473 19.402105a469.719579 469.719579 0 0 1-115.361684 87.147789 518.090105 518.090105 0 0 1-487.989895 0 475.755789 475.755789 0 0 1-106.226526-76.988631c-19.456-18.108632 0-27.755789 0-27.75579z m0 0" fill="#FDBAA2" p-id="14310"></path><path d="M429.136842 671.663158a138.617263 138.617263 0 0 0 80.141474 22.177684 206.066526 206.066526 0 0 0 84.37221-22.177684 147.752421 147.752421 0 0 1-82.270315 30.261895 151.363368 151.363368 0 0 1-82.270316-30.261895" fill="#D8AFAD" p-id="14311"></path><path d="M706.667789 450.182737c-14.848-0.700632-26.327579 23.228632-32.094315 38.561684 2.694737-53.894737-0.215579-113.583158-32.525474-147.994947a170.981053 170.981053 0 0 0-129.913263-60.01179 186.745263 186.745263 0 0 0-143.279158 63.056842c-26.597053 30.531368-29.130105 87.390316-23.929263 136.677053-6.332632-14.362947-16.384-30.881684-28.77979-30.261895-15.683368 4.284632-10.482526 68.392421 18.162527 90.785684a62.571789 62.571789 0 0 0 13.931789 7.329685 129.670737 129.670737 0 0 0 18.512842 54.056421 205.015579 205.015579 0 0 0 101.322105 87.95621 184.023579 184.023579 0 0 0 83.240422 1.13179 195.018105 195.018105 0 0 0 101.753263-82.135579 136.542316 136.542316 0 0 0 19.429052-60.038737 58.88 58.88 0 0 0 16.168421-8.245895c28.564211-24.252632 33.765053-86.554947 18.081685-90.839579" fill="#FCDCD4" p-id="14312"></path><path d="M465.785263 285.938526s146.944 48.909474 180.008421 90.489263c26.947368 33.980632 39.558737 80.222316 33.765053 93.453474s19.294316-91.621053 15.898947-103.019789a634.637474 634.637474 0 0 0-67.557052-80.842106 600.144842 600.144842 0 0 0-80.222316-31.232z m0 0" fill="#28120A" p-id="14313"></path><path d="M512.026947 840.407579s-20.830316 13.877895-32.336842 23.093895-25.896421 44.409263-52.439579 49.960421a22.420211 22.420211 0 0 1-3.449263-15.845053l32.336842-57.209263h25.546106a80.006737 80.006737 0 0 1 30.342736 0" fill="#DBDBDB" p-id="14314"></path><path d="M424.501895 719.629474s-6.548211 60.523789 83.752421 117.032421c-32.148211 17.165474-34.277053 18.162526-45.190737 37.295158a136.299789 136.299789 0 0 1-35.031579 43.897263 492.058947 492.058947 0 0 0-30.962526-91.270737 239.831579 239.831579 0 0 1-7.168-47.427368 485.052632 485.052632 0 0 1 34.492631-59.526737" fill="#FFFFFF" p-id="14315"></path><path d="M504.023579 840.407579s20.911158 13.877895 32.336842 23.093895 29.399579 48.828632 56.077474 54.406737a24.252632 24.252632 0 0 0 0-20.264422l-32.336842-57.209263h-25.680842a80.330105 80.330105 0 0 0-30.396632 0" fill="#DBDBDB" p-id="14316"></path><path d="M595.994947 719.629474s6.629053 60.523789-83.887158 117.032421c32.336842 17.165474 34.330947 18.162526 45.244632 37.295158a134.925474 134.925474 0 0 0 35.031579 43.897263 492.517053 492.517053 0 0 1 30.962526-91.270737 234.442105 234.442105 0 0 0 7.248842-47.427368 482.977684 482.977684 0 0 0-34.681263-59.526737" fill="#FFFFFF" p-id="14317"></path></svg>